<mxfile host="app.diagrams.net" modified="2021-12-20T09:31:11.368Z" agent="5.0 (X11; Linux x86_64) AppleWebKit/537.36 (KHTML, like Gecko) Chrome/93.0.4577.63 Safari/537.36" etag="hbpWWdRPJyjDS5lDghtb" version="15.7.0" type="github">
  <diagram name="Page-1" id="b5b7bab2-c9e2-2cf4-8b2a-24fd1a2a6d21">
    <mxGraphModel dx="1350" dy="745" grid="1" gridSize="10" guides="1" tooltips="1" connect="1" arrows="1" fold="1" page="1" pageScale="1" pageWidth="827" pageHeight="1169" background="none" math="0" shadow="0">
      <root>
        <mxCell id="0" />
        <mxCell id="1" parent="0" />
        <mxCell id="hYl3k4b92WwXlduXc9fn-52" value="" style="edgeStyle=orthogonalEdgeStyle;rounded=0;orthogonalLoop=1;jettySize=auto;html=1;" edge="1" parent="1" source="hYl3k4b92WwXlduXc9fn-19" target="hYl3k4b92WwXlduXc9fn-51">
          <mxGeometry relative="1" as="geometry" />
        </mxCell>
        <mxCell id="hYl3k4b92WwXlduXc9fn-19" value="设置图片路径" style="rounded=1;whiteSpace=wrap;html=1;" vertex="1" parent="1">
          <mxGeometry x="280" y="190" width="120" height="60" as="geometry" />
        </mxCell>
        <mxCell id="hYl3k4b92WwXlduXc9fn-54" value="" style="edgeStyle=orthogonalEdgeStyle;rounded=0;orthogonalLoop=1;jettySize=auto;html=1;" edge="1" parent="1" source="hYl3k4b92WwXlduXc9fn-51" target="hYl3k4b92WwXlduXc9fn-53">
          <mxGeometry relative="1" as="geometry" />
        </mxCell>
        <mxCell id="hYl3k4b92WwXlduXc9fn-56" value="" style="edgeStyle=orthogonalEdgeStyle;rounded=0;orthogonalLoop=1;jettySize=auto;html=1;" edge="1" parent="1" source="hYl3k4b92WwXlduXc9fn-51" target="hYl3k4b92WwXlduXc9fn-55">
          <mxGeometry relative="1" as="geometry" />
        </mxCell>
        <mxCell id="hYl3k4b92WwXlduXc9fn-51" value="本地是否缓存" style="rhombus;whiteSpace=wrap;html=1;rounded=1;" vertex="1" parent="1">
          <mxGeometry x="300" y="320" width="80" height="80" as="geometry" />
        </mxCell>
        <mxCell id="hYl3k4b92WwXlduXc9fn-53" value="设置本地缓存路径" style="whiteSpace=wrap;html=1;rounded=1;" vertex="1" parent="1">
          <mxGeometry x="280" y="470" width="120" height="60" as="geometry" />
        </mxCell>
        <mxCell id="hYl3k4b92WwXlduXc9fn-58" value="" style="edgeStyle=orthogonalEdgeStyle;rounded=0;orthogonalLoop=1;jettySize=auto;html=1;" edge="1" parent="1" source="hYl3k4b92WwXlduXc9fn-55" target="hYl3k4b92WwXlduXc9fn-57">
          <mxGeometry relative="1" as="geometry" />
        </mxCell>
        <mxCell id="hYl3k4b92WwXlduXc9fn-55" value="请求网络获取图片数据" style="whiteSpace=wrap;html=1;rounded=1;" vertex="1" parent="1">
          <mxGeometry x="490" y="330" width="120" height="60" as="geometry" />
        </mxCell>
        <mxCell id="hYl3k4b92WwXlduXc9fn-60" value="" style="edgeStyle=orthogonalEdgeStyle;rounded=0;orthogonalLoop=1;jettySize=auto;html=1;" edge="1" parent="1" source="hYl3k4b92WwXlduXc9fn-57" target="hYl3k4b92WwXlduXc9fn-59">
          <mxGeometry relative="1" as="geometry" />
        </mxCell>
        <mxCell id="hYl3k4b92WwXlduXc9fn-57" value="保存到本地缓存目录" style="whiteSpace=wrap;html=1;rounded=1;" vertex="1" parent="1">
          <mxGeometry x="490" y="470" width="120" height="60" as="geometry" />
        </mxCell>
        <mxCell id="hYl3k4b92WwXlduXc9fn-59" value="更新图片路径" style="whiteSpace=wrap;html=1;rounded=1;" vertex="1" parent="1">
          <mxGeometry x="490" y="610" width="120" height="60" as="geometry" />
        </mxCell>
      </root>
    </mxGraphModel>
  </diagram>
</mxfile>
